<?xml version="1.0" standalone="no"?>
<!DOCTYPE svg PUBLIC "-//W3C//DTD SVG 20010904//EN"
 "http://www.w3.org/TR/2001/REC-SVG-20010904/DTD/svg10.dtd">
<svg version="1.0" xmlns="http://www.w3.org/2000/svg"
 width="512.000000pt" height="512.000000pt" viewBox="0 0 512.000000 512.000000"
 preserveAspectRatio="xMidYMid meet">

<g transform="translate(0.000000,512.000000) scale(0.100000,-0.100000)"
fill="#000000" stroke="none">
<path d="M2220 4950 l0 -170 -170 0 -170 0 0 -170 0 -170 -170 0 -170 0 0
-170 0 -170 170 0 170 0 0 170 0 170 170 0 170 0 0 170 0 170 170 0 170 0 0
-2220 0 -2220 -170 0 -170 0 0 170 0 170 -170 0 -170 0 0 170 0 170 -170 0
-170 0 0 -170 0 -170 170 0 170 0 0 -170 0 -170 170 0 170 0 0 -170 0 -170
340 0 340 0 0 2560 0 2560 -340 0 -340 0 0 -170z"/>
<path d="M1195 4087 c-3 -7 -4 -85 -3 -172 l3 -160 170 0 170 0 0 170 0 170
-168 3 c-131 2 -169 0 -172 -11z"/>
<path d="M170 2560 l0 -1200 510 0 510 0 2 -167 3 -168 170 0 170 0 0 170 0
170 -166 3 -166 2 -6 512 c-4 281 -7 819 -7 1195 l0 683 -510 0 -510 0 0
-1200z m680 0 l0 -850 -170 0 -170 0 0 850 0 850 170 0 170 0 0 -850z"/>
<path d="M3240 3240 l0 -170 170 0 170 0 0 -170 0 -170 175 0 175 0 0 -170 0
-170 -175 0 -175 0 0 -170 0 -170 -170 0 -170 0 0 -170 0 -170 170 0 170 0 0
170 0 170 175 0 175 0 0 170 0 170 170 0 170 0 0 -170 0 -170 170 0 170 0 0
-170 0 -170 170 0 170 0 0 170 0 170 -170 0 -170 0 0 170 0 170 -170 0 -170 0
0 170 0 170 170 0 170 0 0 170 0 170 170 0 170 0 0 170 0 170 -170 0 -170 0 0
-170 0 -170 -170 0 -170 0 0 -170 0 -170 -170 0 -170 0 0 170 0 170 -175 0
-175 0 0 170 0 170 -170 0 -170 0 0 -170z"/>
</g>
</svg>
